<mxfile host="app.diagrams.net" agent="Mozilla/5.0 (Windows NT 10.0; Win64; x64) AppleWebKit/537.36 (KHTML, like Gecko) Chrome/138.0.0.0 Safari/537.36" version="28.0.7">
  <diagram name="Page-1" id="RRq_vOHoM3w0SPPq-Br-">
    <mxGraphModel dx="2422" dy="926" grid="1" gridSize="10" guides="1" tooltips="1" connect="1" arrows="1" fold="1" page="1" pageScale="1" pageWidth="850" pageHeight="1100" math="0" shadow="0">
      <root>
        <mxCell id="0" />
        <mxCell id="1" parent="0" />
        <mxCell id="RP5Iu0WuyFqPS3_i7d5G-12" value="" style="edgeStyle=orthogonalEdgeStyle;rounded=0;orthogonalLoop=1;jettySize=auto;html=1;" edge="1" parent="1" source="RP5Iu0WuyFqPS3_i7d5G-13" target="RP5Iu0WuyFqPS3_i7d5G-15">
          <mxGeometry relative="1" as="geometry" />
        </mxCell>
        <mxCell id="RP5Iu0WuyFqPS3_i7d5G-13" value="Login to systen" style="rounded=0;whiteSpace=wrap;html=1;" vertex="1" parent="1">
          <mxGeometry x="330" y="40" width="120" height="60" as="geometry" />
        </mxCell>
        <mxCell id="RP5Iu0WuyFqPS3_i7d5G-14" value="" style="edgeStyle=orthogonalEdgeStyle;rounded=0;orthogonalLoop=1;jettySize=auto;html=1;" edge="1" parent="1" source="RP5Iu0WuyFqPS3_i7d5G-15" target="RP5Iu0WuyFqPS3_i7d5G-17">
          <mxGeometry relative="1" as="geometry" />
        </mxCell>
        <mxCell id="RP5Iu0WuyFqPS3_i7d5G-15" value="Create review&amp;nbsp;&lt;div&gt;request&lt;/div&gt;" style="rounded=0;whiteSpace=wrap;html=1;" vertex="1" parent="1">
          <mxGeometry x="330" y="119" width="120" height="60" as="geometry" />
        </mxCell>
        <mxCell id="RP5Iu0WuyFqPS3_i7d5G-16" value="" style="edgeStyle=orthogonalEdgeStyle;rounded=0;orthogonalLoop=1;jettySize=auto;html=1;" edge="1" parent="1" source="RP5Iu0WuyFqPS3_i7d5G-17" target="RP5Iu0WuyFqPS3_i7d5G-19">
          <mxGeometry relative="1" as="geometry" />
        </mxCell>
        <mxCell id="RP5Iu0WuyFqPS3_i7d5G-17" value="Fills required details" style="rounded=0;whiteSpace=wrap;html=1;" vertex="1" parent="1">
          <mxGeometry x="330" y="199" width="120" height="60" as="geometry" />
        </mxCell>
        <mxCell id="RP5Iu0WuyFqPS3_i7d5G-18" value="" style="edgeStyle=orthogonalEdgeStyle;rounded=0;orthogonalLoop=1;jettySize=auto;html=1;" edge="1" parent="1" source="RP5Iu0WuyFqPS3_i7d5G-19" target="RP5Iu0WuyFqPS3_i7d5G-20">
          <mxGeometry relative="1" as="geometry" />
        </mxCell>
        <mxCell id="RP5Iu0WuyFqPS3_i7d5G-19" value="Submit for Approval" style="rounded=0;whiteSpace=wrap;html=1;" vertex="1" parent="1">
          <mxGeometry x="330" y="279" width="120" height="60" as="geometry" />
        </mxCell>
        <mxCell id="RP5Iu0WuyFqPS3_i7d5G-20" value="Review type?" style="rhombus;whiteSpace=wrap;html=1;rounded=0;" vertex="1" parent="1">
          <mxGeometry x="320" y="359" width="140" height="101" as="geometry" />
        </mxCell>
        <mxCell id="RP5Iu0WuyFqPS3_i7d5G-21" value="" style="endArrow=classic;html=1;rounded=0;exitX=0.5;exitY=1;exitDx=0;exitDy=0;" edge="1" parent="1" source="RP5Iu0WuyFqPS3_i7d5G-20">
          <mxGeometry width="50" height="50" relative="1" as="geometry">
            <mxPoint x="390" y="450" as="sourcePoint" />
            <mxPoint x="390" y="480" as="targetPoint" />
          </mxGeometry>
        </mxCell>
        <mxCell id="RP5Iu0WuyFqPS3_i7d5G-22" value="" style="endArrow=none;html=1;rounded=0;" edge="1" parent="1">
          <mxGeometry width="50" height="50" relative="1" as="geometry">
            <mxPoint x="40" y="480" as="sourcePoint" />
            <mxPoint x="760" y="480" as="targetPoint" />
            <Array as="points" />
          </mxGeometry>
        </mxCell>
        <mxCell id="RP5Iu0WuyFqPS3_i7d5G-23" value="" style="endArrow=classic;html=1;rounded=0;" edge="1" parent="1">
          <mxGeometry width="50" height="50" relative="1" as="geometry">
            <mxPoint x="40" y="480" as="sourcePoint" />
            <mxPoint x="40" y="530" as="targetPoint" />
          </mxGeometry>
        </mxCell>
        <mxCell id="RP5Iu0WuyFqPS3_i7d5G-24" value="" style="rounded=0;whiteSpace=wrap;html=1;" vertex="1" parent="1">
          <mxGeometry x="-120" y="530" width="330" height="780" as="geometry" />
        </mxCell>
        <mxCell id="RP5Iu0WuyFqPS3_i7d5G-25" value="Payment Run Recon- USTBC" style="text;html=1;align=center;verticalAlign=middle;whiteSpace=wrap;rounded=0;" vertex="1" parent="1">
          <mxGeometry x="-50" y="535" width="190" height="30" as="geometry" />
        </mxCell>
        <mxCell id="RP5Iu0WuyFqPS3_i7d5G-26" value="" style="edgeStyle=orthogonalEdgeStyle;rounded=0;orthogonalLoop=1;jettySize=auto;html=1;" edge="1" parent="1" source="RP5Iu0WuyFqPS3_i7d5G-27" target="RP5Iu0WuyFqPS3_i7d5G-29">
          <mxGeometry relative="1" as="geometry" />
        </mxCell>
        <mxCell id="RP5Iu0WuyFqPS3_i7d5G-27" value="Notify TNB approves" style="rounded=0;whiteSpace=wrap;html=1;" vertex="1" parent="1">
          <mxGeometry x="-20" y="570" width="120" height="60" as="geometry" />
        </mxCell>
        <mxCell id="RP5Iu0WuyFqPS3_i7d5G-28" value="" style="edgeStyle=orthogonalEdgeStyle;rounded=0;orthogonalLoop=1;jettySize=auto;html=1;" edge="1" parent="1" source="RP5Iu0WuyFqPS3_i7d5G-29" target="RP5Iu0WuyFqPS3_i7d5G-31">
          <mxGeometry relative="1" as="geometry" />
        </mxCell>
        <mxCell id="RP5Iu0WuyFqPS3_i7d5G-29" value="Set form status with TNB approver" style="rounded=0;whiteSpace=wrap;html=1;" vertex="1" parent="1">
          <mxGeometry x="-20" y="660" width="120" height="60" as="geometry" />
        </mxCell>
        <mxCell id="RP5Iu0WuyFqPS3_i7d5G-30" value="" style="edgeStyle=orthogonalEdgeStyle;rounded=0;orthogonalLoop=1;jettySize=auto;html=1;" edge="1" parent="1" source="RP5Iu0WuyFqPS3_i7d5G-31" target="RP5Iu0WuyFqPS3_i7d5G-36">
          <mxGeometry relative="1" as="geometry" />
        </mxCell>
        <mxCell id="RP5Iu0WuyFqPS3_i7d5G-31" value="Redirecting from email to App" style="rounded=0;whiteSpace=wrap;html=1;" vertex="1" parent="1">
          <mxGeometry x="-20" y="760" width="120" height="60" as="geometry" />
        </mxCell>
        <mxCell id="RP5Iu0WuyFqPS3_i7d5G-32" value="" style="edgeStyle=orthogonalEdgeStyle;rounded=0;orthogonalLoop=1;jettySize=auto;html=1;exitX=0;exitY=0.5;exitDx=0;exitDy=0;" edge="1" parent="1" source="RP5Iu0WuyFqPS3_i7d5G-36" target="RP5Iu0WuyFqPS3_i7d5G-38">
          <mxGeometry relative="1" as="geometry" />
        </mxCell>
        <mxCell id="RP5Iu0WuyFqPS3_i7d5G-33" value="Approve" style="edgeLabel;html=1;align=center;verticalAlign=middle;resizable=0;points=[];" vertex="1" connectable="0" parent="RP5Iu0WuyFqPS3_i7d5G-32">
          <mxGeometry x="-0.5044" relative="1" as="geometry">
            <mxPoint x="-2" as="offset" />
          </mxGeometry>
        </mxCell>
        <mxCell id="RP5Iu0WuyFqPS3_i7d5G-34" value="" style="edgeStyle=orthogonalEdgeStyle;rounded=0;orthogonalLoop=1;jettySize=auto;html=1;" edge="1" parent="1" source="RP5Iu0WuyFqPS3_i7d5G-36" target="RP5Iu0WuyFqPS3_i7d5G-40">
          <mxGeometry relative="1" as="geometry">
            <Array as="points">
              <mxPoint x="140" y="890" />
            </Array>
          </mxGeometry>
        </mxCell>
        <mxCell id="RP5Iu0WuyFqPS3_i7d5G-35" value="Reject" style="edgeLabel;html=1;align=center;verticalAlign=middle;resizable=0;points=[];" vertex="1" connectable="0" parent="RP5Iu0WuyFqPS3_i7d5G-34">
          <mxGeometry x="-0.6929" y="-2" relative="1" as="geometry">
            <mxPoint x="12" as="offset" />
          </mxGeometry>
        </mxCell>
        <mxCell id="RP5Iu0WuyFqPS3_i7d5G-50" style="edgeStyle=orthogonalEdgeStyle;rounded=0;orthogonalLoop=1;jettySize=auto;html=1;exitX=1;exitY=0.5;exitDx=0;exitDy=0;strokeColor=#FF6392;fontColor=#5AA9E6;fillColor=#FFE45E;" edge="1" parent="1" source="RP5Iu0WuyFqPS3_i7d5G-36">
          <mxGeometry relative="1" as="geometry">
            <mxPoint x="80" y="890" as="targetPoint" />
          </mxGeometry>
        </mxCell>
        <mxCell id="RP5Iu0WuyFqPS3_i7d5G-36" value="Action From App" style="rhombus;whiteSpace=wrap;html=1;rounded=0;" vertex="1" parent="1">
          <mxGeometry x="-20" y="850" width="120" height="100" as="geometry" />
        </mxCell>
        <mxCell id="RP5Iu0WuyFqPS3_i7d5G-37" value="" style="edgeStyle=orthogonalEdgeStyle;rounded=0;orthogonalLoop=1;jettySize=auto;html=1;" edge="1" parent="1" source="RP5Iu0WuyFqPS3_i7d5G-38" target="RP5Iu0WuyFqPS3_i7d5G-41">
          <mxGeometry relative="1" as="geometry" />
        </mxCell>
        <mxCell id="RP5Iu0WuyFqPS3_i7d5G-38" value="From Status set to &lt;b&gt;Processed by TNV Approvers&lt;/b&gt;" style="whiteSpace=wrap;html=1;rounded=0;" vertex="1" parent="1">
          <mxGeometry x="-110" y="940" width="120" height="60" as="geometry" />
        </mxCell>
        <mxCell id="RP5Iu0WuyFqPS3_i7d5G-39" value="" style="edgeStyle=orthogonalEdgeStyle;rounded=0;orthogonalLoop=1;jettySize=auto;html=1;" edge="1" parent="1" source="RP5Iu0WuyFqPS3_i7d5G-40" target="RP5Iu0WuyFqPS3_i7d5G-43">
          <mxGeometry relative="1" as="geometry" />
        </mxCell>
        <mxCell id="RP5Iu0WuyFqPS3_i7d5G-40" value="&lt;br&gt;&lt;span style=&quot;color: rgb(0, 0, 0); font-family: Helvetica; font-size: 12px; font-style: normal; font-variant-ligatures: normal; font-variant-caps: normal; letter-spacing: normal; orphans: 2; text-align: center; text-indent: 0px; text-transform: none; widows: 2; word-spacing: 0px; -webkit-text-stroke-width: 0px; white-space: normal; background-color: rgb(236, 236, 236); text-decoration-thickness: initial; text-decoration-style: initial; text-decoration-color: initial; float: none; display: inline !important;&quot;&gt;From Status set to&lt;br&gt;&amp;nbsp;&lt;b&gt;Rejected&lt;/b&gt;&lt;/span&gt;&lt;b style=&quot;forced-color-adjust: none; color: rgb(0, 0, 0); font-family: Helvetica; font-size: 12px; font-style: normal; font-variant-ligatures: normal; font-variant-caps: normal; letter-spacing: normal; orphans: 2; text-align: center; text-indent: 0px; text-transform: none; widows: 2; word-spacing: 0px; -webkit-text-stroke-width: 0px; white-space: normal; background-color: rgb(236, 236, 236); text-decoration-thickness: initial; text-decoration-style: initial; text-decoration-color: initial;&quot;&gt;&amp;nbsp;by TNV Approvers&lt;/b&gt;&lt;div&gt;&lt;br/&gt;&lt;/div&gt;" style="whiteSpace=wrap;html=1;rounded=0;" vertex="1" parent="1">
          <mxGeometry x="77" y="940" width="120" height="60" as="geometry" />
        </mxCell>
        <mxCell id="RP5Iu0WuyFqPS3_i7d5G-41" value="End" style="ellipse;whiteSpace=wrap;html=1;rounded=0;" vertex="1" parent="1">
          <mxGeometry x="-90" y="1038" width="80" height="30" as="geometry" />
        </mxCell>
        <mxCell id="RP5Iu0WuyFqPS3_i7d5G-42" value="" style="edgeStyle=orthogonalEdgeStyle;rounded=0;orthogonalLoop=1;jettySize=auto;html=1;" edge="1" parent="1" source="RP5Iu0WuyFqPS3_i7d5G-43" target="RP5Iu0WuyFqPS3_i7d5G-44">
          <mxGeometry relative="1" as="geometry" />
        </mxCell>
        <mxCell id="RP5Iu0WuyFqPS3_i7d5G-43" value="&lt;div&gt;Rejected email sent to the submitter&lt;/div&gt;" style="whiteSpace=wrap;html=1;rounded=0;" vertex="1" parent="1">
          <mxGeometry x="77" y="1042" width="120" height="60" as="geometry" />
        </mxCell>
        <mxCell id="RP5Iu0WuyFqPS3_i7d5G-44" value="End" style="ellipse;whiteSpace=wrap;html=1;rounded=0;" vertex="1" parent="1">
          <mxGeometry x="97" y="1129" width="80" height="38" as="geometry" />
        </mxCell>
        <mxCell id="RP5Iu0WuyFqPS3_i7d5G-45" value="" style="rounded=0;whiteSpace=wrap;html=1;" vertex="1" parent="1">
          <mxGeometry x="210" y="530" width="270" height="780" as="geometry" />
        </mxCell>
        <mxCell id="RP5Iu0WuyFqPS3_i7d5G-46" value="" style="rounded=0;whiteSpace=wrap;html=1;" vertex="1" parent="1">
          <mxGeometry x="480" y="530" width="270" height="780" as="geometry" />
        </mxCell>
        <mxCell id="RP5Iu0WuyFqPS3_i7d5G-48" value="Payment Run Recon- USTBC" style="text;html=1;align=center;verticalAlign=middle;whiteSpace=wrap;rounded=0;" vertex="1" parent="1">
          <mxGeometry x="250" y="540" width="190" height="30" as="geometry" />
        </mxCell>
        <mxCell id="RP5Iu0WuyFqPS3_i7d5G-49" value="" style="rounded=0;whiteSpace=wrap;html=1;" vertex="1" parent="1">
          <mxGeometry x="750" y="530" width="270" height="780" as="geometry" />
        </mxCell>
      </root>
    </mxGraphModel>
  </diagram>
</mxfile>
